<svg xmlns="http://www.w3.org/2000/svg" width="36.94" height="29.552" viewBox="0 0 36.94 29.552">
  <path id="Icon_awesome-crown" data-name="Icon awesome-crown" d="M30.476,25.858H6.465a.926.926,0,0,0-.924.924v1.847a.926.926,0,0,0,.924.924H30.476a.926.926,0,0,0,.924-.924V26.782A.926.926,0,0,0,30.476,25.858ZM34.17,7.388A2.771,2.771,0,0,0,31.4,10.159a2.714,2.714,0,0,0,.254,1.143l-4.179,2.505a1.845,1.845,0,0,1-2.551-.67l-4.7-8.231a2.771,2.771,0,1,0-3.5,0l-4.7,8.231a1.846,1.846,0,0,1-2.551.67L5.293,11.3a2.77,2.77,0,1,0-2.522,1.628,2.829,2.829,0,0,0,.444-.046L7.388,24.011H29.552l4.173-11.128a2.829,2.829,0,0,0,.444.046,2.771,2.771,0,0,0,0-5.541Z" fill="#ffe72f"/>
</svg>
